:SAMPLES-PER-SECOND 30
:FULLY-SPECIFIED
:DEGREES
1454
root  14.5493 40.6218 9.89484 74.3729 88.3391 78.2332
RightUpLeg  2.81004 -11.7252 -12.7064
RightLeg  6.72554 -7.85472 2.23536
RightFoot  -0.705622 -0.380018 3.9092
RightToes  0.000481921 0.542163 -0.142578
Spine  0.621531 -7.88512 -13.2724
Spine1  11.5866 -12.322 14.435
HEad  14.7034 13.408 -2.67144
LeftShoulder1  8.04901 -14.6998 -38.0607
LeftArm  -43.6284 -62.6006 21.887
LeftForeArm  8.1821 6.57331 -9.72779
LeftHand  -0.25398 0.0180481 5.50724
RightShoulder  3.34653 6.90757 26.0698
RightArm  4.26934 -37.4224 37.3042
RightForeArm  149.753 50.2016 166.447
RightHand  -0.102338 -3.47241 -4.82627
LeftUpLeg  4.89194 7.75805 8.78009
LeftLeg  0.541784 14.7559 -3.66182
LeftFoot  2.87028 0.725564 -5.99181
LeftToes  1.06245e-005 4.65869e-005 -8.65517e-006
1455
root  14.566 40.6218 9.88668 63.5551 88.2123 67.4047
RightUpLeg  2.68414 -11.7378 -12.7394
RightLeg  6.79441 -7.49953 2.23039
RightFoot  -0.693163 -0.381591 3.9269
RightToes  0.000481921 0.542163 -0.142578
Spine  0.381904 -7.69397 -12.9449
Spine1  11.6461 -11.9084 13.7688
HEad  14.9788 12.7147 -1.8878
LeftShoulder1  8.08307 -14.9811 -37.5877
LeftArm  -42.817 -62.5666 20.67
LeftForeArm  8.55785 6.73441 -9.6666
LeftHand  -0.25398 0.0180481 5.50724
RightShoulder  3.34472 6.87775 26.1472
RightArm  3.80003 -36.4314 36.5677
RightForeArm  149.023 49.7657 166.588
RightHand  -0.116117 -3.39142 -5.49018
LeftUpLeg  4.94251 7.78316 8.75409
LeftLeg  0.623656 15.1339 -3.67484
LeftFoot  2.81494 0.716344 -5.91747
LeftToes  1.06245e-005 4.65869e-005 -8.65517e-006
1456
root  14.5719 40.622 9.88283 61.2091 88.1536 65.0494
RightUpLeg  2.65765 -11.7469 -12.7748
RightLeg  6.79203 -7.37562 2.24408
RightFoot  -0.68721 -0.383111 3.94434
RightToes  0.000481921 0.542163 -0.142578
Spine  0.328657 -7.49688 -12.9067
Spine1  11.4904 -11.6384 13.6767
HEad  15.0897 12.1003 -1.53166
LeftShoulder1  8.24015 -15.2543 -37.7796
LeftArm  -42.2001 -62.4731 19.9542
LeftForeArm  8.79804 6.66435 -9.67156
LeftHand  -0.25398 0.0180481 5.50724
RightShoulder  3.34341 6.88302 26.1171
RightArm  3.42881 -35.5227 35.9423
RightForeArm  148.032 49.2586 166.74
RightHand  -0.131186 -3.30826 -6.1638
LeftUpLeg  4.94827 7.78741 8.73213
LeftLeg  0.650847 15.2426 -3.68544
LeftFoot  2.80281 0.712786 -5.87973
LeftToes  1.06245e-005 4.65869e-005 -8.65517e-006
1457
root  14.5554 40.6223 9.87047 63.906 88.2147 67.6977
RightUpLeg  2.65223 -11.7399 -12.7576
RightLeg  6.72397 -7.46094 2.27299
RightFoot  -0.648233 -0.38287 3.93505
RightToes  0.000481921 0.542163 -0.142578
Spine  0.349232 -7.35478 -12.8878
Spine1  11.3463 -11.4954 13.7696
HEad  14.9974 11.849 -1.48679
LeftShoulder1  8.36856 -15.3295 -38.2669
LeftArm  -42.0041 -62.5295 19.8925
LeftForeArm  8.95127 6.60843 -9.75619
LeftHand  -0.25398 0.0180481 5.50724
RightShoulder  3.32863 6.8799 25.9791
RightArm  3.16963 -34.8372 35.7463
RightForeArm  147.884 48.7481 166.945
RightHand  -0.147131 -3.11805 -6.53786
LeftUpLeg  4.8504 7.77063 8.72886
LeftLeg  0.649055 15.1174 -3.67018
LeftFoot  2.79285 0.720671 -5.94823
LeftToes  1.06245e-005 4.65869e-005 -8.65517e-006
1458
root  14.5347 40.6227 9.87093 71.239 88.3334 74.9273
RightUpLeg  2.60166 -11.7403 -12.7121
RightLeg  6.67241 -7.70182 2.30194
RightFoot  -0.60289 -0.382312 3.92148
RightToes  0.000481921 0.542163 -0.142578
Spine  0.42549 -7.2899 -12.7252
Spine1  11.1566 -11.3772 13.6462
HEad  14.8808 11.8131 -1.44757
LeftShoulder1  8.36131 -15.263 -38.3808
LeftArm  -41.724 -62.6406 19.7021
LeftForeArm  9.13455 6.57384 -9.8555
LeftHand  -0.25398 0.0180481 5.50724
RightShoulder  3.34847 6.91188 26.0746
RightArm  3.04186 -34.5199 35.7512
RightForeArm  148.842 48.2514 167.213
RightHand  -0.157317 -2.95071 -6.62444
LeftUpLeg  4.64443 7.73744 8.72131
LeftLeg  0.65007 14.9376 -3.62964
LeftFoot  2.83669 0.722916 -5.94219
LeftToes  1.06245e-005 4.65869e-005 -8.65517e-006
1459
root  14.523 40.6233 9.89236 85.8094 88.3972 89.3975
RightUpLeg  2.58118 -11.7777 -12.7115
RightLeg  6.6747 -8.08258 2.32351
RightFoot  -0.60206 -0.382403 3.91871
RightToes  0.000481921 0.542163 -0.142578
Spine  0.548608 -7.28645 -12.586
Spine1  10.8698 -11.2866 13.44
HEad  14.8563 11.7606 -1.34803
LeftShoulder1  8.30939 -15.2324 -38.1852
LeftArm  -41.0935 -62.6161 19.0879
LeftForeArm  9.24868 6.42361 -9.93214
LeftHand  -0.25398 0.0180481 5.50724
RightShoulder  3.4164 7.01953 26.404
RightArm  3.03897 -34.6378 35.7223
RightForeArm  150.136 47.7735 167.49
RightHand  -0.157728 -2.93396 -6.60237
LeftUpLeg  4.42981 7.68744 8.68753
LeftLeg  0.610407 14.6625 -3.60174
LeftFoot  2.95711 0.721914 -5.85893
LeftToes  1.06245e-005 4.65869e-005 -8.65517e-006
1460
root  14.5121 40.6236 9.91746 105.4 88.2776 108.959
RightUpLeg  2.68136 -11.8415 -12.7653
RightLeg  6.69919 -8.56997 2.33861
RightFoot  -0.648384 -0.382716 3.92014
RightToes  0.000481921 0.542163 -0.142578
Spine  0.591765 -7.29508 -12.6551
Spine1  10.7668 -11.2889 13.4834
HEad  14.8298 11.6141 -1.39446
LeftShoulder1  8.35219 -15.2975 -38.2555
LeftArm  -40.7043 -62.5429 18.7858
LeftForeArm  9.27221 6.24605 -9.98603
LeftHand  -0.25398 0.0180481 5.50724
RightShoulder  3.46872 7.12735 26.5738
RightArm  3.08056 -34.9631 35.7969
RightForeArm  151.077 47.3563 167.715
RightHand  -0.154429 -2.97318 -6.53782
LeftUpLeg  4.29601 7.63239 8.64831
LeftLeg  0.505023 14.1692 -3.6051
LeftFoot  3.10036 0.725617 -5.8471
LeftToes  1.06245e-005 4.65869e-005 -8.65517e-006
1461
root  14.4957 40.6236 9.94 122.29 87.9714 125.897
RightUpLeg  2.88088 -11.9 -12.8207
RightLeg  6.71548 -9.08963 2.3502
RightFoot  -0.709303 -0.383676 3.93243
RightToes  0.000481921 0.542163 -0.142578
Spine  0.515072 -7.27792 -12.885
Spine1  11.0363 -11.3786 13.7909
HEad  14.7296 11.3834 -1.69158
LeftShoulder1  8.47419 -15.3993 -38.6445
LeftArm  -40.9157 -62.5517 19.1504
LeftForeArm  9.33279 6.16928 -10.0052
LeftHand  -0.25398 0.0180481 5.50724
RightShoulder  3.45249 7.12724 26.4151
RightArm  3.06252 -35.1221 36.1391
RightForeArm  151.876 47.0667 167.88
RightHand  -0.148391 -3.01173 -6.32944
LeftUpLeg  4.22691 7.59705 8.63879
LeftLeg  0.409627 13.5529 -3.61068
LeftFoot  3.22614 0.72924 -5.85919
LeftToes  1.06245e-005 4.65869e-005 -8.65517e-006
1462
root  14.4765 40.6236 9.96685 134.184 87.5781 137.861
RightUpLeg  3.09082 -11.9381 -12.8399
RightLeg  6.72136 -9.61571 2.35818
RightFoot  -0.762192 -0.385791 3.9635
RightToes  0.000481921 0.542163 -0.142578
Spine  0.483128 -7.25019 -13.095
Spine1  11.3748 -11.4768 14.0923
HEad  14.6757 11.1268 -2.04035
LeftShoulder1  8.55402 -15.5093 -38.7976
LeftArm  -41.1033 -62.5012 19.3651
LeftForeArm  9.37436 6.08996 -9.96135
LeftHand  -0.25398 0.0180481 5.50724
RightShoulder  3.39546 7.02742 26.1723
RightArm  2.99349 -34.9656 36.5916
RightForeArm  152.798 46.9666 167.978
RightHand  -0.136627 -3.14118 -6.03883
LeftUpLeg  4.1278 7.58657 8.65918
LeftLeg  0.415959 12.9728 -3.58575
LeftFoot  3.32944 0.72411 -5.77325
LeftToes  1.06245e-005 4.65869e-005 -8.65517e-006
1463
root  14.452 40.6236 9.99327 142.884 87.1223 146.593
RightUpLeg  3.24541 -11.9547 -12.8191
RightLeg  6.72364 -10.1948 2.3557
RightFoot  -0.79906 -0.38783 3.99433
RightToes  0.000481921 0.542163 -0.142578
Spine  0.616429 -7.2483 -13.1516
Spine1  11.4001 -11.5153 14.1747
HEad  14.7976 10.9385 -2.1714
LeftShoulder1  8.52719 -15.613 -38.4288
LeftArm  -40.6391 -62.2594 18.6562
LeftForeArm  9.22873 5.86876 -9.85284
LeftHand  -0.25398 0.0180481 5.50724
RightShoulder  3.35182 6.92266 26.0739
RightArm  2.98979 -34.5639 36.876
RightForeArm  153.41 47.0926 167.969
RightHand  -0.131113 -3.2561 -6.02525
LeftUpLeg  3.92416 7.58066 8.6849
LeftLeg  0.52538 12.4062 -3.53291
LeftFoot  3.40087 0.718029 -5.67506
LeftToes  1.06245e-005 4.65869e-005 -8.65517e-006
1464
root  14.4173 40.6235 10.0114 149.206 86.607 152.894
RightUpLeg  3.32926 -11.9571 -12.7763
RightLeg  6.73153 -10.8301 2.33923
RightFoot  -0.819272 -0.38889 4.01092
RightToes  0.000481921 0.542163 -0.142578
Spine  0.821373 -7.26779 -13.0459
Spine1  11.1607 -11.4819 14.0413
HEad  15.0502 10.7831 -2.03988
LeftShoulder1  8.40429 -15.6176 -37.8006
LeftArm  -39.7077 -61.9565 17.201
LeftForeArm  9.00115 5.40419 -9.70582
LeftHand  -0.25398 0.0180481 5.50724
RightShoulder  3.33096 6.85482 26.0832
RightArm  3.05545 -33.8538 36.9656
RightForeArm  153.395 47.4695 167.822
RightHand  -0.148814 -3.07344 -6.49619
LeftUpLeg  3.63606 7.56478 8.6992
LeftLeg  0.65827 11.7961 -3.48233
LeftFoot  3.45745 0.717737 -5.67153
LeftToes  1.06245e-005 4.65869e-005 -8.65517e-006
1465
root  14.3782 40.6237 10.027 153.287 86.101 156.926
RightUpLeg  3.35956 -11.9636 -12.7453
RightLeg  6.74306 -11.4164 2.32127
RightFoot  -0.82979 -0.390221 4.03275
RightToes  0.000481921 0.542163 -0.142578
Spine  0.94625 -7.24965 -12.8676
Spine1  10.9425 -11.3797 13.8296
HEad  15.3119 10.4505 -1.81843
LeftShoulder1  8.20032 -15.4452 -37.1483
LeftArm  -38.4453 -61.6313 15.1992
LeftForeArm  8.78703 4.23448 -9.55196
LeftHand  -0.25398 0.0180481 5.50724
RightShoulder  3.31829 6.81744 26.0765
RightArm  2.9729 -32.5128 37.0752
RightForeArm  153.122 48.1678 167.528
RightHand  -0.187091 -2.64385 -7.23527
LeftUpLeg  3.3535 7.54364 8.69413
LeftLeg  0.728242 11.2472 -3.4628
LeftFoot  3.55405 0.717368 -5.66985
LeftToes  1.06245e-005 4.65869e-005 -8.65517e-006
